<svg width="453" height="93" viewBox="0 0 453 93" fill="none" xmlns="http://www.w3.org/2000/svg">
<path d="M161.72 59H155.96V44.648C155.96 41.864 155.48 40.856 154.136 40.856C153.416 40.856 152.264 41.432 151.016 42.488C150.2 43.16 149.384 43.976 147.944 45.608V59H142.184V44.648C142.184 41.864 141.704 40.856 140.312 40.856C139.112 40.856 137.432 42.056 134.936 44.744L134.168 45.56V59H128.408V36.68H134.168V40.376C136.856 37.448 139.064 36.248 141.896 36.248C145.208 36.248 147.224 37.784 147.752 40.616C150.2 37.688 152.744 36.248 155.672 36.248C159.704 36.248 161.72 38.36 161.72 42.584V59ZM186.25 54.968L185.338 59.288H184.138C181.258 59.288 180.346 58.808 179.338 56.84C177.226 58.76 175.354 59.576 173.098 59.576C169.306 59.576 166.618 57.08 166.618 53.528C166.618 52.76 166.762 51.992 167.002 51.272C167.77 49.208 169.114 48.152 172.378 47.192L178.714 45.368V43.496C178.714 41.096 177.85 39.992 175.978 39.992C174.25 39.992 172.858 40.904 172.858 42.008C172.858 42.2 172.906 42.296 173.002 42.584L167.53 43.784C167.29 43.112 167.242 42.872 167.242 42.248C167.242 38.312 170.698 36.056 176.746 36.056C182.074 36.056 184.474 38.264 184.474 43.16V52.472C184.474 54.488 184.714 54.824 186.25 54.968ZM178.714 53.432V49.064L173.002 50.936C172.666 51.8 172.57 52.232 172.57 52.808C172.57 54.248 173.434 55.112 174.874 55.112C175.594 55.112 176.458 54.872 177.226 54.44C177.609 54.248 177.898 54.056 178.714 53.432ZM209.99 59H203.462L196.502 47.528V59H190.79V24.008H196.502V46.328L203.462 36.68H209.894L201.878 46.952L209.99 59ZM231.82 56.84C230.764 57.416 229.948 57.8 229.42 58.04C227.068 59.096 224.668 59.624 222.076 59.624C215.452 59.624 211.276 55.256 211.276 48.44C211.276 41.384 216.076 36.056 222.46 36.056C227.98 36.056 231.82 40.232 231.82 46.28V48.728H217.036C217.132 50.6 217.276 51.368 217.804 52.28C218.764 53.912 220.684 54.968 222.796 54.968C223.66 54.968 224.524 54.872 225.436 54.584C226.78 54.2 227.644 53.768 229.708 52.472L231.82 56.84ZM226.06 45.128C225.916 41.72 224.764 40.376 222.076 40.376C219.532 40.376 217.804 42.104 217.324 45.128H226.06ZM259.553 56.84C258.785 57.32 258.065 57.752 257.441 58.136C255.761 59.096 254.033 59.624 252.449 59.624C249.473 59.624 248.081 58.088 248.081 54.776V40.904H244.769V37.256L248.081 36.68V30.008H253.505V36.68H258.353V40.904H253.505V50.84C253.505 53.336 253.745 54.056 254.657 54.056C255.329 54.056 256.145 53.72 257.729 52.664L259.553 56.84ZM282.382 59H276.622V44.648C276.622 41.864 276.142 40.856 274.75 40.856C273.549 40.856 271.87 42.056 269.374 44.744L268.606 45.56V59H262.846V24.008H268.606V40.376C271.294 37.448 273.502 36.248 276.334 36.248C280.366 36.248 282.382 38.36 282.382 42.584V59ZM294.762 28.664C294.762 30.824 293.322 32.552 291.546 32.552C289.77 32.552 288.282 30.824 288.282 28.664C288.282 26.504 289.77 24.776 291.546 24.776C293.322 24.776 294.762 26.504 294.762 28.664ZM294.378 59H288.666V36.68H294.378V59ZM320.397 59H314.637V44.648C314.637 41.864 314.157 40.856 312.765 40.856C311.565 40.856 309.885 42.056 307.389 44.744L306.621 45.56V59H300.861V36.68H306.621V40.376C309.309 37.448 311.517 36.248 314.349 36.248C318.381 36.248 320.397 38.36 320.397 42.584V59ZM347.609 41H343.673C344.441 42.104 344.681 42.872 344.681 44.312C344.681 49.4 340.745 52.808 334.889 52.808C334.313 52.808 333.977 52.808 333.257 52.664C331.769 53.768 331.049 54.488 331.049 55.064C331.049 55.544 331.433 55.688 332.537 55.688H340.361C344.729 55.688 346.793 57.464 346.793 61.064C346.793 66.632 341.417 70.664 333.929 70.664C328.457 70.664 324.761 68.408 324.761 65.048C324.761 63.32 325.721 61.832 328.313 59.624C326.105 58.808 325.193 57.944 325.193 56.6C325.193 55.304 325.961 54.296 328.121 52.856C328.409 52.616 328.889 52.328 329.513 51.848C328.505 51.08 328.073 50.744 327.545 50.12C326.249 48.584 325.577 46.76 325.577 44.648C325.577 39.32 329.225 36.056 335.129 36.056C336.761 36.056 337.673 36.248 339.785 36.968H343.097L347.609 36.68V41ZM338.825 44.36C338.825 42.056 337.145 40.184 335.081 40.184C333.065 40.184 331.433 42.104 331.433 44.408C331.433 46.664 333.065 48.488 335.129 48.488C337.193 48.488 338.825 46.664 338.825 44.36ZM341.417 61.736C341.417 60.824 340.505 60.344 338.585 60.344H331.625C331.433 60.68 331.289 60.968 331.145 61.112C330.473 62.216 330.089 63.08 330.089 63.656C330.089 65.048 332.153 66.152 334.793 66.152C336.521 66.152 338.393 65.528 339.737 64.424C340.793 63.608 341.417 62.6 341.417 61.736ZM367.666 38.216L365.842 42.872C365.266 42.488 364.738 42.152 364.306 41.912C362.722 40.952 360.802 40.376 359.17 40.376C356.962 40.376 355.522 41.24 355.522 42.488C355.522 43.496 356.29 44.12 358.306 44.84C360.802 45.704 364.018 47.144 365.026 47.912C366.418 48.872 367.33 50.888 367.33 52.856C367.33 56.936 363.778 59.624 358.402 59.624C357.298 59.624 356.098 59.48 354.754 59.192C352.69 58.76 351.682 58.376 349.234 57.128L351.058 52.472C353.314 53.864 354.226 54.296 355.858 54.824C356.722 55.112 357.538 55.256 358.354 55.256C360.562 55.256 361.858 54.536 361.858 53.336C361.858 52.328 361.138 51.56 359.602 50.984L355.762 49.496C351.826 48.008 350.002 45.896 350.002 42.92C350.002 38.744 353.65 35.912 359.074 35.912C360.13 35.912 361.378 36.056 362.77 36.344C364.882 36.776 365.65 37.064 367.666 38.216ZM396.334 56.84C395.566 57.32 394.846 57.752 394.222 58.136C392.542 59.096 390.814 59.624 389.23 59.624C386.254 59.624 384.862 58.088 384.862 54.776V40.904H381.55V37.256L384.862 36.68V30.008H390.286V36.68H395.134V40.904H390.286V50.84C390.286 53.336 390.526 54.056 391.438 54.056C392.11 54.056 392.926 53.72 394.51 52.664L396.334 56.84ZM417.531 54.968L416.619 59.288H415.419C412.539 59.288 411.627 58.808 410.619 56.84C408.507 58.76 406.635 59.576 404.379 59.576C400.587 59.576 397.899 57.08 397.899 53.528C397.899 52.76 398.043 51.992 398.283 51.272C399.051 49.208 400.395 48.152 403.659 47.192L409.995 45.368V43.496C409.995 41.096 409.131 39.992 407.259 39.992C405.531 39.992 404.139 40.904 404.139 42.008C404.139 42.2 404.187 42.296 404.283 42.584L398.811 43.784C398.571 43.112 398.523 42.872 398.523 42.248C398.523 38.312 401.979 36.056 408.027 36.056C413.355 36.056 415.755 38.264 415.755 43.16V52.472C415.755 54.488 415.995 54.824 417.531 54.968ZM409.995 53.432V49.064L404.283 50.936C403.947 51.8 403.851 52.232 403.851 52.808C403.851 54.248 404.715 55.112 406.155 55.112C406.875 55.112 407.739 54.872 408.507 54.44C408.891 54.248 409.179 54.056 409.995 53.432ZM427.639 59H421.927V24.008H427.639V59ZM452.755 59H446.227L439.267 47.528V59H433.555V24.008H439.267V46.328L446.227 36.68H452.659L444.643 46.952L452.755 59Z" fill="black"/>
<path fill-rule="evenodd" clip-rule="evenodd" d="M0 93V46.5L0.00622967 45.731C0.416861 20.4045 21.0756 0 46.5 0C72.1812 0 93 20.8188 93 46.5C93 71.9244 72.5955 92.5831 47.269 92.9938L46.5 93H0Z" fill="black"/>
</svg>
